<?xml version="1.0" encoding="UTF-8" standalone="no"?>
<svg width="349px" height="232px" viewBox="0 0 349 232" version="1.1" xmlns="http://www.w3.org/2000/svg" xmlns:xlink="http://www.w3.org/1999/xlink" xmlns:sketch="http://www.bohemiancoding.com/sketch/ns">
    <!-- Generator: Sketch 3.1.1 (8761) - http://www.bohemiancoding.com/sketch -->
    <title>Rectangle 2 + landing-logo</title>
    <desc>Created with Sketch.</desc>
    <defs></defs>
    <g id="Page-1" stroke="none" stroke-width="1" fill="none" fill-rule="evenodd" sketch:type="MSPage">
        <g id="Rectangle-2-+-landing-logo" sketch:type="MSLayerGroup">
            <rect id="Rectangle-2" fill="#DDDDDD" sketch:type="MSShapeGroup" x="0" y="0" width="349" height="232"></rect>
            <g id="landing-logo" transform="translate(10.000000, 74.000000)" sketch:type="MSShapeGroup">
                <g id="Group">
                    <path d="M44.927957,4.80434783 L44.927957,-0.369565217 L61.9086022,-0.369565217 L61.9086022,4.80434783 L57.6634409,5.54347826 L57.6634409,36.2173913 L61.9086022,36.9565217 L61.9086022,42.1304348 L44.927957,42.1304348 L44.927957,36.9565217 L49.1731183,36.2173913 L49.1731183,5.54347826 L44.927957,4.80434783 L44.927957,4.80434783 Z" id="Shape" fill="#2F54AC"></path>
                    <path d="M101.883871,13.3043478 L95.8698925,13.3043478 L94.8086022,7.39130435 C94.1010753,7.02173913 93.0397849,6.65217391 91.6247312,6.2826087 C90.2096774,5.91304348 88.7946237,5.91304348 87.3795699,5.91304348 C85.2569892,5.91304348 83.488172,6.2826087 82.0731183,7.39130435 C81.011828,8.5 80.3043011,9.60869565 80.3043011,11.0869565 C80.3043011,12.5652174 81.011828,13.673913 82.0731183,14.7826087 C83.488172,15.8913043 85.6107527,16.6304348 88.7946237,17.7391304 C93.3935484,19.2173913 96.9311828,20.6956522 99.0537634,22.9130435 C101.530108,25.1304348 102.591398,28.0869565 102.591398,31.4130435 C102.591398,35.1086957 101.176344,38.0652174 98.3462366,40.2826087 C95.516129,42.5 91.9784946,43.6086957 87.3795699,43.6086957 C84.1956989,43.6086957 81.011828,43.2391304 78.5354839,42.1304348 C76.0591398,41.0217391 73.5827957,39.5434783 71.8139785,37.6956522 L71.8139785,28.826087 L78.1817204,28.826087 L78.8892473,35.1086957 C79.5967742,35.8478261 81.011828,36.2173913 82.4268817,36.9565217 C83.8419355,37.326087 85.2569892,37.6956522 87.0258065,37.6956522 C89.1483871,37.6956522 90.9172043,37.326087 92.3322581,36.2173913 C93.3935484,35.1086957 94.1010753,34 94.1010753,32.5217391 C94.1010753,31.0434783 93.3935484,29.5652174 92.3322581,28.4565217 C91.2709677,27.3478261 89.1483871,26.6086957 86.3182796,25.5 C81.3655914,24.0217391 77.827957,22.173913 75.3516129,20.326087 C72.8752688,18.4782609 71.4602151,15.5217391 71.4602151,12.1956522 C71.4602151,8.86956522 72.8752688,5.91304348 75.7053763,3.69565217 C78.5354839,1.47826087 82.0731183,0.369565217 86.3182796,0.369565217 C89.5021505,0.369565217 92.3322581,0.739130435 94.8086022,1.84782609 C97.2849462,2.95652174 99.7612903,4.06521739 101.176344,5.91304348 L101.176344,13.3043478 L101.883871,13.3043478 Z" id="Shape" fill="#2F54AC"></path>
                    <path d="M145.396774,14.0434783 L139.382796,14.0434783 L138.675269,8.5 C137.967742,7.76086957 136.906452,7.02173913 135.491398,6.65217391 C134.430108,6.2826087 132.66129,5.91304348 131.246237,5.91304348 C127.708602,5.91304348 124.878495,7.39130435 123.109677,9.97826087 C121.34086,12.5652174 120.27957,16.2608696 120.27957,20.6956522 L120.27957,22.173913 C120.27957,26.6086957 121.34086,29.9347826 123.109677,32.8913043 C124.878495,35.4782609 127.708602,36.9565217 131.246237,36.9565217 C133.015054,36.9565217 134.430108,36.5869565 135.845161,36.2173913 C137.260215,35.8478261 138.321505,35.1086957 139.029032,34.3695652 L139.736559,28.826087 L145.750538,28.826087 L145.750538,37.326087 C143.98172,39.173913 141.85914,41.0217391 139.382796,42.1304348 C136.906452,43.2391304 134.076344,43.9782609 130.892473,43.9782609 C125.232258,43.9782609 120.987097,42.1304348 117.449462,38.0652174 C113.911828,34 112.143011,28.826087 112.143011,22.5434783 L112.143011,21.0652174 C112.143011,14.7826087 113.911828,9.60869565 117.449462,5.54347826 C120.987097,1.47826087 125.586022,-0.369565217 130.892473,-0.369565217 C134.076344,-0.369565217 136.906452,0.369565217 139.382796,1.47826087 C141.85914,2.58695652 143.98172,4.43478261 145.750538,6.2826087 L145.750538,14.0434783 L145.396774,14.0434783 Z" id="Shape" fill="#2F54AC"></path>
                    <path d="M200.937634,37.6956522 C199.522581,39.173913 197.753763,40.2826087 195.277419,41.3913043 C192.801075,42.5 189.617204,43.2391304 185.725806,43.2391304 C180.065591,43.2391304 175.82043,41.3913043 172.282796,37.326087 C168.745161,33.6304348 166.976344,28.4565217 166.976344,22.173913 L166.976344,20.6956522 C166.976344,14.4130435 168.745161,8.86956522 172.282796,5.17391304 C175.82043,1.10869565 180.065591,-0.739130435 185.725806,-0.739130435 C188.909677,-0.739130435 191.739785,-0.369565217 194.569892,0.739130435 C197.4,1.84782609 199.522581,3.32608696 201.291398,5.17391304 L201.291398,13.673913 L194.569892,13.673913 L193.508602,7.76086957 C192.801075,7.02173913 191.739785,6.65217391 190.678495,6.2826087 C189.617204,5.91304348 188.202151,5.54347826 186.433333,5.54347826 C182.895699,5.54347826 180.065591,7.02173913 177.943011,9.60869565 C175.82043,12.1956522 175.112903,15.8913043 175.112903,20.326087 L175.112903,22.173913 C175.112903,26.6086957 176.174194,29.9347826 177.943011,32.5217391 C180.065591,35.1086957 182.895699,36.5869565 186.433333,36.5869565 C188.202151,36.5869565 189.263441,36.5869565 190.324731,36.2173913 C191.386022,35.8478261 192.093548,35.4782609 192.801075,35.1086957 L192.801075,27.7173913 L186.787097,27.3478261 L186.787097,21.4347826 L200.937634,21.4347826 L200.937634,37.6956522 L200.937634,37.6956522 Z" id="Shape" fill="#309292"></path>
                    <path d="M248.341935,21.4347826 C248.341935,27.7173913 246.573118,32.8913043 243.035484,36.9565217 C239.497849,41.0217391 235.252688,43.2391304 229.592473,43.2391304 C223.932258,43.2391304 219.687097,41.0217391 216.149462,36.9565217 C212.611828,32.8913043 211.196774,27.7173913 211.196774,21.4347826 L211.196774,20.6956522 C211.196774,14.4130435 212.965591,9.23913043 216.149462,5.17391304 C219.687097,1.10869565 223.932258,-1.10869565 229.592473,-1.10869565 C235.252688,-1.10869565 239.497849,1.10869565 243.035484,5.17391304 C246.573118,9.23913043 248.341935,14.4130435 248.341935,20.6956522 L248.341935,21.4347826 L248.341935,21.4347826 Z M240.205376,20.6956522 C240.205376,16.2608696 239.497849,12.5652174 237.729032,9.97826087 C235.960215,7.39130435 233.483871,5.91304348 229.946237,5.91304348 C226.408602,5.91304348 223.932258,7.39130435 222.163441,9.97826087 C220.394624,12.5652174 219.687097,16.2608696 219.687097,20.6956522 L219.687097,21.4347826 C219.687097,25.8695652 220.394624,29.5652174 222.163441,32.5217391 C223.932258,35.1086957 226.408602,36.5869565 229.946237,36.5869565 C233.483871,36.5869565 235.960215,35.1086957 237.729032,32.5217391 C239.497849,29.9347826 240.205376,26.2391304 240.205376,21.4347826 L240.205376,20.6956522 L240.205376,20.6956522 Z" id="Shape" fill="#309292"></path>
                    <path d="M257.539785,42.5 L257.539785,37.326087 L261.784946,36.5869565 L261.784946,5.91304348 L257.539785,5.17391304 L257.539785,7.10542736e-15 L261.784946,7.10542736e-15 L269.921505,7.10542736e-15 L274.166667,7.10542736e-15 L274.166667,5.17391304 L269.921505,5.91304348 L269.921505,36.2173913 L281.595699,36.2173913 L281.949462,30.673913 L288.317204,30.673913 L288.317204,42.5 L257.539785,42.5 L257.539785,42.5 Z" id="Shape" fill="#309292"></path>
                    <path d="M297.16129,37.326087 L301.406452,36.5869565 L301.406452,5.91304348 L297.16129,4.80434783 L297.16129,-0.369565217 L329.707527,-0.369565217 L329.707527,11.4565217 L323.339785,11.4565217 L322.986022,6.2826087 L309.543011,6.2826087 L309.543011,18.1086957 L324.047312,18.1086957 L324.047312,24.7608696 L309.543011,24.7608696 L309.543011,36.5869565 L313.788172,37.326087 L313.788172,42.5 L297.16129,42.5 L297.16129,37.326087 L297.16129,37.326087 Z" id="Shape" fill="#309292"></path>
                    <g transform="translate(77.827957, 66.521739)" id="Shape" fill="#58595B">
                        <path d="M7.07526882,0.739130435 C8.84408602,0.739130435 10.2591398,1.10869565 11.3204301,2.2173913 C12.3817204,2.95652174 12.7354839,4.43478261 12.7354839,5.91304348 C12.7354839,6.65217391 12.3817204,7.39130435 12.027957,8.13043478 C11.6741935,8.86956522 10.9666667,9.23913043 9.90537634,9.60869565 C10.9666667,9.97826087 11.6741935,10.3478261 12.027957,11.0869565 C12.3817204,11.826087 12.7354839,12.5652174 12.7354839,13.673913 L12.7354839,14.4130435 C12.7354839,14.7826087 12.7354839,15.1521739 13.0892473,15.1521739 C13.0892473,15.5217391 13.4430108,15.5217391 13.7967742,15.5217391 L14.1505376,15.5217391 L14.1505376,17.7391304 L12.3817204,17.7391304 C11.3204301,17.7391304 10.6129032,17.3695652 10.2591398,17 C9.90537634,16.2608696 9.5516129,15.5217391 9.5516129,14.7826087 L9.5516129,13.673913 C9.5516129,12.9347826 9.19784946,12.1956522 8.84408602,11.826087 C8.84408602,11.0869565 8.13655914,11.0869565 7.42903226,11.0869565 L4.59892473,11.0869565 L4.59892473,15.5217391 L6.36774194,15.8913043 L6.36774194,18.1086957 L-0.353763441,18.1086957 L-0.353763441,15.8913043 L1.41505376,15.5217391 L1.41505376,3.32608696 L-0.353763441,2.95652174 L-0.353763441,0.739130435 L1.41505376,0.739130435 L7.07526882,0.739130435 L7.07526882,0.739130435 Z M4.59892473,8.13043478 L7.07526882,8.13043478 C8.13655914,8.13043478 8.84408602,7.76086957 9.19784946,7.39130435 C9.5516129,7.02173913 9.90537634,6.2826087 9.90537634,5.54347826 C9.90537634,4.80434783 9.5516129,4.06521739 9.19784946,3.69565217 C8.84408602,3.32608696 8.13655914,2.95652174 7.07526882,2.95652174 L4.59892473,2.95652174 L4.59892473,8.13043478 L4.59892473,8.13043478 Z"></path>
                        <path d="M26.8860215,0.739130435 L26.8860215,2.95652174 L25.1172043,3.32608696 L25.1172043,12.1956522 C25.1172043,13.3043478 25.4709677,14.0434783 25.8247312,14.7826087 C26.5322581,15.5217391 27.2397849,15.5217391 28.3010753,15.5217391 C29.3623656,15.5217391 30.0698925,15.1521739 30.7774194,14.7826087 C31.4849462,14.0434783 31.4849462,13.3043478 31.4849462,12.1956522 L31.4849462,3.32608696 L29.716129,2.95652174 L29.716129,0.739130435 L36.4376344,0.739130435 L36.4376344,2.95652174 L34.6688172,3.32608696 L34.6688172,12.1956522 C34.6688172,14.0434783 33.9612903,15.5217391 32.9,16.6304348 C31.8387097,17.7391304 30.0698925,18.1086957 27.9473118,18.1086957 C25.8247312,18.1086957 24.4096774,17.7391304 23.3483871,16.6304348 C22.2870968,15.5217391 21.5795699,14.0434783 21.5795699,12.1956522 L21.5795699,3.32608696 L19.8107527,2.95652174 L19.8107527,0.739130435 L21.5795699,0.739130435 L24.7634409,0.739130435 L26.8860215,0.739130435 L26.8860215,0.739130435 Z"></path>
                        <path d="M42.0978495,17.7391304 L42.0978495,15.5217391 L43.8666667,15.1521739 L43.8666667,2.95652174 L42.0978495,2.58695652 L42.0978495,0.369565217 L43.8666667,0.369565217 L47.0505376,0.369565217 L48.8193548,0.369565217 L48.8193548,2.58695652 L47.0505376,2.95652174 L47.0505376,15.1521739 L51.6494624,15.1521739 L51.6494624,12.9347826 L54.1258065,12.9347826 L54.1258065,17.7391304 L42.0978495,17.7391304 L42.0978495,17.7391304 Z"></path>
                        <path d="M71.1064516,10.3478261 L65.4462366,10.3478261 L65.4462366,15.1521739 L70.7526882,15.1521739 L70.7526882,12.9347826 L73.2290323,12.9347826 L73.2290323,17.7391304 L60.1397849,17.7391304 L60.1397849,15.5217391 L61.9086022,15.1521739 L61.9086022,2.95652174 L60.1397849,2.58695652 L60.1397849,0.369565217 L61.9086022,0.369565217 L73.2290323,0.369565217 L73.2290323,5.17391304 L70.7526882,5.17391304 L70.7526882,2.95652174 L65.4462366,2.95652174 L65.4462366,7.39130435 L71.1064516,7.39130435 L71.1064516,10.3478261 L71.1064516,10.3478261 Z"></path>
                        <path d="M97.2849462,0.739130435 C99.0537634,0.739130435 100.822581,1.10869565 101.883871,1.84782609 C102.945161,2.58695652 103.652688,3.69565217 103.652688,5.54347826 C103.652688,6.2826087 103.298925,7.02173913 102.945161,7.76086957 C102.591398,8.5 101.883871,8.86956522 101.176344,9.23913043 C102.237634,9.60869565 102.945161,9.97826087 103.298925,10.7173913 C103.652688,11.4565217 104.006452,12.1956522 104.006452,13.3043478 C104.006452,14.7826087 103.652688,16.2608696 102.591398,17 C101.530108,17.7391304 100.115054,18.1086957 98.3462366,18.1086957 L90.2096774,18.1086957 L90.2096774,15.8913043 L91.9784946,15.5217391 L91.9784946,3.32608696 L90.2096774,2.95652174 L90.2096774,0.739130435 L91.9784946,0.739130435 L97.2849462,0.739130435 L97.2849462,0.739130435 Z M95.1623656,7.76086957 L97.6387097,7.76086957 C98.3462366,7.76086957 99.0537634,7.39130435 99.7612903,7.02173913 C100.468817,6.65217391 100.468817,5.91304348 100.468817,5.54347826 C100.468817,4.80434783 100.115054,4.06521739 99.7612903,3.69565217 C99.4075269,3.32608696 98.7,2.95652174 97.6387097,2.95652174 L95.516129,2.95652174 L95.516129,7.76086957 L95.1623656,7.76086957 Z M95.1623656,10.3478261 L95.1623656,15.1521739 L98.3462366,15.1521739 C99.0537634,15.1521739 99.7612903,14.7826087 100.468817,14.4130435 C100.822581,14.0434783 101.176344,13.3043478 101.176344,12.5652174 C101.176344,11.826087 100.822581,11.0869565 100.468817,10.7173913 C100.115054,10.3478261 99.4075269,9.97826087 98.7,9.97826087 L95.1623656,9.97826087 L95.1623656,10.3478261 Z"></path>
                        <path d="M124.878495,9.23913043 C124.878495,11.826087 124.170968,13.673913 122.755914,15.5217391 C121.34086,17 119.572043,18.1086957 117.449462,18.1086957 C115.326882,18.1086957 113.558065,17.3695652 112.143011,15.5217391 C110.727957,14.0434783 110.02043,11.826087 110.02043,9.23913043 L110.02043,8.86956522 C110.02043,6.2826087 110.727957,4.43478261 112.143011,2.58695652 C113.558065,1.10869565 115.326882,-1.3129594e-14 117.449462,-1.3129594e-14 C119.572043,-1.3129594e-14 121.34086,0.739130435 122.755914,2.58695652 C124.170968,4.43478261 124.878495,6.65217391 124.878495,9.23913043 L124.878495,9.23913043 L124.878495,9.23913043 Z M121.694624,9.23913043 C121.694624,7.39130435 121.34086,5.91304348 120.633333,4.80434783 C119.925806,3.69565217 118.864516,3.32608696 117.449462,3.32608696 C116.034409,3.32608696 114.973118,3.69565217 114.265591,4.80434783 C113.558065,5.91304348 113.204301,7.39130435 113.204301,9.23913043 L113.204301,9.60869565 C113.204301,11.4565217 113.558065,12.9347826 114.265591,14.0434783 C114.973118,15.1521739 116.034409,15.5217391 117.449462,15.5217391 C118.864516,15.5217391 119.925806,15.1521739 120.633333,14.0434783 C121.34086,12.5652174 121.694624,11.0869565 121.694624,9.23913043 L121.694624,9.23913043 L121.694624,9.23913043 Z"></path>
                        <path d="M146.104301,9.23913043 C146.104301,11.826087 145.396774,13.673913 143.98172,15.5217391 C142.566667,17 140.797849,18.1086957 138.675269,18.1086957 C136.552688,18.1086957 134.783871,17.3695652 133.368817,15.5217391 C131.953763,14.0434783 131.246237,11.826087 131.246237,9.23913043 L131.246237,8.86956522 C131.246237,6.2826087 131.953763,4.43478261 133.368817,2.58695652 C134.783871,1.10869565 136.552688,-1.3129594e-14 138.675269,-1.3129594e-14 C140.797849,-1.3129594e-14 142.566667,0.739130435 143.98172,2.58695652 C145.396774,4.43478261 146.104301,6.65217391 146.104301,9.23913043 L146.104301,9.23913043 L146.104301,9.23913043 Z M142.566667,9.23913043 C142.566667,7.39130435 142.212903,5.91304348 141.505376,4.80434783 C140.797849,3.69565217 139.736559,3.32608696 138.321505,3.32608696 C136.906452,3.32608696 135.845161,3.69565217 135.137634,4.80434783 C134.783871,5.91304348 134.430108,7.39130435 134.430108,9.23913043 L134.430108,9.60869565 C134.430108,11.4565217 134.783871,12.9347826 135.491398,14.0434783 C136.198925,15.1521739 137.260215,15.5217391 138.675269,15.5217391 C140.090323,15.5217391 141.151613,15.1521739 141.85914,14.0434783 C142.212903,12.5652174 142.566667,11.0869565 142.566667,9.23913043 L142.566667,9.23913043 L142.566667,9.23913043 Z"></path>
                        <path d="M151.764516,15.8913043 L153.533333,15.5217391 L153.533333,3.32608696 L151.764516,2.95652174 L151.764516,0.739130435 L158.486022,0.739130435 L158.486022,2.95652174 L156.717204,3.32608696 L156.717204,7.76086957 L158.132258,7.76086957 L161.316129,2.95652174 L160.254839,2.95652174 L160.254839,0.739130435 L166.622581,0.739130435 L166.622581,2.95652174 L164.853763,3.32608696 L160.962366,8.86956522 L165.56129,15.5217391 L167.330108,15.8913043 L167.330108,18.1086957 L160.962366,18.1086957 L160.962366,15.8913043 L162.023656,15.8913043 L158.839785,11.0869565 L157.070968,11.0869565 L157.070968,15.8913043 L158.839785,16.2608696 L158.839785,18.4782609 L152.11828,18.4782609 L152.11828,15.8913043 L151.764516,15.8913043 Z"></path>
                    </g>
                    <rect id="Rectangle-path" fill="#D1D3D4" x="35.3763441" y="55.4347826" width="254.002151" height="1.84782609"></rect>
                    <path d="M3.53763441,36.5869565 L-0.707526882,37.326087 L-0.707526882,42.5 L17.688172,42.5 C22.6408602,42.5 26.8860215,40.6521739 30.0698925,37.326087 C33.2537634,34 35.0225806,29.5652174 35.0225806,24.3913043 L35.0225806,17.3695652 C35.0225806,12.1956522 33.2537634,7.76086957 30.0698925,4.43478261 C26.8860215,1.10869565 22.6408602,-0.739130435 17.688172,-0.739130435 L3.53763441,-0.739130435 L-0.707526882,-0.739130435 L-0.707526882,4.43478261 L3.53763441,5.54347826 L3.53763441,33.2608696 L11.6741935,32.8913043 L11.6741935,6.2826087 L16.9806452,6.2826087 C19.8107527,6.2826087 22.2870968,7.39130435 24.055914,9.23913043 C25.8247312,11.0869565 26.5322581,14.0434783 26.5322581,17.3695652 L26.5322581,24.3913043 C26.5322581,27.7173913 25.8247312,30.3043478 24.055914,32.5217391 C22.2870968,34.7391304 20.1645161,35.4782609 16.9806452,35.4782609 L12.027957,35.4782609 C12.027957,35.8478261 6.01397849,35.8478261 3.53763441,36.5869565 L3.53763441,36.5869565 Z" id="Shape" fill="#2F54AC"></path>
                </g>
            </g>
        </g>
    </g>
</svg>